<svg id="instagram" data-name="Слой 1" xmlns="http://www.w3.org/2000/svg" viewBox="0 0 25.88 25.85"><defs><style>.cls-1{fill:gray;}</style></defs><path class="cls-1" d="M20.05,4.64a1.21,1.21,0,1,0,1.22,1.21A1.22,1.22,0,0,0,20.05,4.64Z"/><path class="cls-1" d="M13,6.93a6.74,6.74,0,1,0,6.72,6.73A6.73,6.73,0,0,0,13,6.93ZM13,18.59a4.91,4.91,0,1,1,4.94-4.92A4.91,4.91,0,0,1,13,18.59Z"/><path class="cls-1" d="M18.71,0c-1.93,0-3.85,0-5.78,0h0C11,0,9.08,0,7.16,0A7,7,0,0,0,1.84,2.43,7.06,7.06,0,0,0,0,7.31c0,3.75,0,7.51,0,11.26A7,7,0,0,0,1.47,23a7,7,0,0,0,5.75,2.86c3.83,0,7.66,0,11.49,0a7.23,7.23,0,0,0,7.17-7.22c0-3.77,0-7.54,0-11.31A7,7,0,0,0,24.46,3,7,7,0,0,0,18.71,0ZM24,12.91v5.75A5.39,5.39,0,0,1,19.33,24a14.25,14.25,0,0,1-1.6,0c-3.48,0-7,0-10.45,0a5.28,5.28,0,0,1-4.43-2.25,5.36,5.36,0,0,1-1-3.21c0-3.74,0-7.49,0-11.23A5.37,5.37,0,0,1,6.2,2a4.33,4.33,0,0,1,1-.11c3.87,0,7.75,0,11.63,0a5.1,5.1,0,0,1,3.61,1.51,5.34,5.34,0,0,1,1.64,4C24,9.21,24,11.06,24,12.91Z"/></svg>