<svg id="text" width="401" height="38" viewBox="0 0 401 38" fill="none" xmlns="http://www.w3.org/2000/svg">
<path d="M23.5981 26.715C23.43 29.6386 20.8419 31.6549 17.9176 31.4532H10.2541V21.6071L17.2118 21.439C21.0435 21.439 23.6317 23.4553 23.6317 26.547V26.715H23.5981ZM22.5225 11.7272C22.3208 14.3148 19.9344 16.1295 17.3799 15.9278H10.2541V7.19061H16.8421C20.136 7.19061 22.5225 9.00527 22.5225 11.3912V11.7272ZM24.8753 18.3138C28.5391 16.4991 29.6483 14.6509 29.6483 11.0216C29.6483 7.19061 27.6314 3.89733 24.1695 2.25072C22.3208 1.5114 20.136 1.34338 13.9178 1.34338H0.00244141V7.19061H2.75862V31.4868H0.00244141V37.334H19.2285C26.1863 37.334 30.9591 33.3351 30.9591 27.2863C31.2953 23.2537 28.7406 19.5908 24.8753 18.3138ZM41.715 20.0612C42.2527 17.1712 44.7737 14.8189 47.7986 14.8189H47.9668C50.8237 14.8189 53.3447 17.1712 53.3447 20.2293L41.715 20.0612ZM41.3453 24.934H60.7058C60.8737 21.3046 59.7981 17.8769 58.0168 14.8189C55.6976 11.1896 51.7314 9.2069 47.5971 9.2069C40.0678 9.2069 34.5219 15.1886 34.5219 23.4889C34.5219 31.7893 40.0678 37.7709 47.5971 37.7709C54.0506 37.7709 58.8907 34.1416 60.1342 28.1936L53.3112 28.3616C52.6053 30.7139 50.2524 32.5286 47.765 32.3269C46.555 32.3606 42.0847 31.9909 41.3453 24.934ZM91.9986 37.3004H95.9983V19.1875L83.4612 19.1539V19.1875L83.293 22.5144H91.8304C91.8304 23.4217 91.8304 24.3963 91.6624 25.3036C90.7547 30.0082 86.755 33.6039 81.8476 33.8055C75.663 33.8055 70.9573 27.4879 70.9573 18.8179C70.9573 7.79549 77.4781 3.99817 81.8476 3.99817C84.7383 4.16619 87.6625 5.61118 89.4776 7.96351C90.385 9.2405 91.1245 10.6519 91.4607 12.2649H95.4604V1.34338H91.6624V6.55213C89.4776 2.75479 85.4778 0.234427 80.9401 0.402451C72.7724 0.402451 66.2181 8.70283 66.2181 19.1875C66.2181 29.6722 72.7389 37.7709 81.1081 37.7709C83.9989 37.7709 86.923 36.6955 89.276 34.7129C90.3514 33.6375 91.2591 32.6294 91.9986 31.3524V37.3004ZM118.35 27.6559C117.812 31.6213 114.317 34.4776 110.283 34.6793C107.359 34.6793 104.771 32.5286 104.603 29.4706C104.603 26.0429 107.359 24.6316 115.796 23.5225L118.35 23.1529V27.6559ZM118.35 37.3004H126.216L125.846 33.9736H122.014V19.0531C122.014 12.2313 117.241 9.71096 111.561 9.71096C109.006 9.71096 106.25 10.4167 104.233 12.0633C102.586 13.5083 101.477 15.4238 101.107 17.5745H105.309C106.048 13.9788 108.065 12.769 111.897 12.769C115.762 12.769 118.115 14.7517 118.115 17.8097V20.4981L115.56 20.6661C104.569 21.7415 99.9981 24.2619 99.9981 29.4706V30.0082C100.368 34.5112 104.401 38.1069 108.972 37.7372C112.804 37.7372 116.468 35.721 118.317 32.2933V37.3004H118.35ZM163.458 37.3004H171.054V33.9736H167.256V16.6336C167.256 11.9289 164.903 9.2069 160.769 9.2069C158.618 9.2069 156.634 10.1142 154.987 11.5592C153.912 12.6346 153.172 13.7435 152.467 14.9869C151.761 11.1896 149.778 9.17329 146.147 9.17329C141.106 9.17329 138.753 13.1723 137.476 14.9869L137.308 9.67736H129.375V13.0042H133.341V33.9736H129.375V37.3004H141.106V33.9736H137.139V20.4309C137.139 17.9105 140.198 12.6346 144.366 12.6346C147.089 12.6346 148.332 14.0796 148.332 17.5409V37.3004H156.265V33.9736H152.265V20.0948C152.265 18.1122 154.786 12.4666 159.491 12.4666C162.18 12.4666 163.458 14.2812 163.458 18.0785V37.3004ZM198.616 23.3881C198.616 30.1091 195.725 34.276 191.053 34.276C186.717 33.9064 183.322 30.2771 183.322 25.7741L183.154 21.0694C183.154 17.0704 187.12 12.7354 191.087 12.7354C195.557 12.7018 198.616 16.7008 198.616 23.3881ZM202.952 23.9594C202.952 15.9951 198.28 9.67736 192.129 9.67736C187.457 9.67736 184.364 13.6091 183.289 15.5918V0.402451H175.726V3.72931H179.322V33.9736H175.524V37.3004H183.289V32.2933C184.902 34.4776 187.255 37.7709 192.129 37.7709C197.91 37.7709 202.952 31.386 202.952 23.9594ZM205.069 37.3004H216.733V33.9736H213.102V0.402451H205.271V3.49408H209.103V33.9736H205.103V37.3004H205.069ZM224.362 21.3718C224.362 20.4645 224.732 19.5572 224.9 18.6835C225.808 15.4238 228.699 13.1051 232.127 12.9034C233.74 12.7354 235.387 13.4411 236.665 14.5165C238.48 16.4991 239.387 18.8515 239.387 21.3718H224.362ZM224.194 24.4299H243.925C243.925 14.8861 238.513 9.64376 231.791 9.64376C225.102 9.64376 219.859 15.7598 219.859 23.6906C219.859 31.9909 225.102 37.7372 232.53 37.7372C235.959 37.7372 239.051 36.2923 241.202 33.7719C242.278 32.495 243.017 31.2516 243.387 29.6386L238.883 29.8066C237.438 33.0662 235.454 34.4776 232.362 34.4776C230.547 34.4776 228.732 33.7719 227.287 32.495C225.472 30.7475 224.564 28.3952 224.194 24.4299ZM269.236 24.0266H259.823L264.528 8.03072L269.236 24.0266ZM273.402 37.3004H281.536V31.5877H278.813L268.897 1.34338H260.226L250.446 31.5877H247.723V37.3004H256.059L258.413 29.5042H271.082L273.402 37.3004ZM319.013 14.9197H321.367V9.67736H310.51V14.9197H313.233L309.602 31.05L305.097 9.67736H298.041L293.502 31.4196L289.738 14.9197H292.428V9.67736H281.569V14.9197H283.923L289.872 37.3004H297.1L301.436 18.1458L305.972 37.3004H313.2L319.013 14.9197ZM340.728 27.1519C340.559 30.4115 337.836 32.9318 334.577 32.9318C331.854 32.9318 330.038 31.4868 330.038 29.3362C330.038 25.5389 334.208 25.0012 340.526 24.4635H340.695V26.9839V27.1519H340.728ZM340.928 37.3004H349.433V32.0245H347.079L347.249 19.2211C347.249 13.1051 343.249 9.67736 335.651 9.67736C329.131 9.67736 324.795 13.1051 324.426 18.5154L330.946 18.6835V18.5154C331.115 15.9951 332.392 14.382 335.82 14.382C339.249 14.382 340.695 15.659 340.695 19.7924C331.987 20.4981 322.946 21.4054 322.946 29.3362C322.946 34.2088 327.115 37.8045 332.559 37.8045C335.82 37.8045 338.913 36.5275 340.895 34.0408V37.3004H340.928ZM369.061 15.6254C370.138 15.6254 371.213 15.7934 372.29 15.9951V9.57655C371.213 9.40852 370.305 9.2069 369.231 9.2069C366.172 9.2069 364.19 10.6855 362.408 14.1804V9.67736H353.231V15.0877H355.92V32.0245H353.231V37.3004H365.802V32.0245H362.574V21.3382C362.777 18.0113 365.633 15.4574 369.061 15.6254ZM380.826 20.0612C381.364 17.1712 383.884 14.8189 386.91 14.8189H387.079C389.936 14.8189 392.456 17.1712 392.456 20.2293L380.826 20.0612ZM380.626 24.934H399.984C400.154 21.3046 399.077 17.8769 397.297 14.8189C394.977 11.1896 391.01 9.2069 386.877 9.2069C379.349 9.2069 373.769 15.1886 373.769 23.4889C373.769 31.7893 379.313 37.7709 386.877 37.7709C393.331 37.7709 398.169 34.1416 399.413 28.1936L392.59 28.3616C391.884 30.7139 389.531 32.5286 387.043 32.3269C385.836 32.3606 381.364 31.9909 380.626 24.934Z" fill="white"/>
</svg>
