<svg id='gamble' width="280" height="27" viewBox="0 0 280 27" fill="none" xmlns="http://www.w3.org/2000/svg">
<path d="M16.5169 18.9507C16.3993 21.0164 14.5876 22.4411 12.5406 22.2986H7.17617V15.3416L12.0465 15.2229C14.7288 15.2229 16.5405 16.6475 16.5405 18.832V18.9507H16.5169ZM15.764 8.36085C15.6229 10.1891 13.9523 11.4713 12.1642 11.3289H7.17617V5.15541H11.7877C14.0935 5.15541 15.764 6.43759 15.764 8.12341V8.36085ZM17.411 13.0147C19.9757 11.7325 20.7521 10.4266 20.7521 7.86223C20.7521 5.15541 19.3403 2.82848 16.9169 1.66504C15.6229 1.14266 14.0935 1.02394 9.74075 1.02394H0V5.15541H1.92933V22.3223H0V26.4537H13.4582C18.3287 26.4537 21.6697 23.6282 21.6697 19.3544C21.905 16.5051 20.1167 13.917 17.411 13.0147ZM29.1988 14.2494C29.5752 12.2074 31.3399 10.5453 33.4573 10.5453H33.5751C35.5749 10.5453 37.3396 12.2074 37.3396 14.3681L29.1988 14.2494ZM28.94 17.6923H42.4923C42.6099 15.1279 41.8569 12.706 40.6101 10.5453C38.9866 7.98095 36.2103 6.58005 33.3162 6.58005C28.0458 6.58005 24.1636 10.8065 24.1636 16.6713C24.1636 22.536 28.0458 26.7624 33.3162 26.7624C37.8337 26.7624 41.2217 24.1981 42.0923 19.9954L37.3161 20.1142C36.822 21.7762 35.175 23.0584 33.4338 22.9159C32.5868 22.9397 29.4576 22.6785 28.94 17.6923ZM64.3973 26.43H67.1971V13.632L58.4211 13.6083V13.632L58.3034 15.9827H64.2796C64.2796 16.6238 64.2796 17.3124 64.162 17.9535C63.5266 21.2776 60.7268 23.8182 57.2916 23.9607C52.9624 23.9607 49.6684 19.4968 49.6684 13.3709C49.6684 5.58279 54.2329 2.89973 57.2916 2.89973C59.3151 3.01845 61.362 4.03943 62.6326 5.70151C63.2678 6.60379 63.7854 7.60105 64.0207 8.74077H66.8206V1.02394H64.162V4.70428C62.6326 2.0212 59.8328 0.240391 56.6564 0.359111C50.939 0.359111 46.3509 6.22389 46.3509 13.632C46.3509 21.0402 50.9155 26.7624 56.7739 26.7624C58.7975 26.7624 60.8444 26.0026 62.4915 24.6017C63.2443 23.8419 63.8797 23.1296 64.3973 22.2274V26.43ZM82.8436 19.6155C82.467 22.4173 80.0201 24.4355 77.1967 24.578C75.1497 24.578 73.3381 23.0584 73.2204 20.8977C73.2204 18.4759 75.1497 17.4786 81.0553 16.695L82.8436 16.4338V19.6155ZM82.8436 26.43H88.3491L88.0903 24.0794H85.4081V13.5371C85.4081 8.717 82.0671 6.93621 78.0907 6.93621C76.3025 6.93621 74.3732 7.43484 72.9615 8.59829C71.8087 9.61929 71.0322 10.9727 70.7734 12.4923H73.7145C74.2321 9.9517 75.6438 9.09692 78.326 9.09692C81.0318 9.09692 82.6788 10.4978 82.6788 12.6585V14.5581L80.8906 14.6768C73.1968 15.4366 69.9969 17.2174 69.9969 20.8977V21.2776C70.2558 24.4593 73.0793 26.9999 76.279 26.7387C78.9613 26.7387 81.5259 25.3141 82.82 22.8922V26.43H82.8436ZM114.419 26.43H119.736V24.0794H117.077V11.8275C117.077 8.50331 115.43 6.58005 112.536 6.58005C111.031 6.58005 109.642 7.22115 108.489 8.24213C107.736 9.00195 107.219 9.78549 106.725 10.664C106.231 7.98095 104.843 6.55631 102.301 6.55631C98.7721 6.55631 97.1252 9.38185 96.2311 10.664L96.1136 6.91246H90.5608V9.26313H93.3371V24.0794H90.5608V26.43H98.7721V24.0794H95.9958V14.5106C95.9958 12.7298 98.1369 9.00195 101.055 9.00195C102.96 9.00195 103.831 10.0229 103.831 12.4686V26.43H109.384V24.0794H106.584V14.2731C106.584 12.8722 108.348 8.88323 111.642 8.88323C113.525 8.88323 114.419 10.1654 114.419 12.8485V26.43ZM139.029 16.6C139.029 21.3488 137.006 24.2931 133.735 24.2931C130.7 24.0319 128.324 21.4676 128.324 18.2859L128.206 14.9617C128.206 12.1362 130.983 9.07318 133.759 9.07318C136.888 9.04944 139.029 11.875 139.029 16.6ZM142.064 17.0037C142.064 11.3763 138.794 6.91246 134.488 6.91246C131.218 6.91246 129.053 9.69052 128.3 11.0914V0.359111H123.007V2.70976H125.524V24.0794H122.865V26.43H128.3V22.8922C129.43 24.4355 131.077 26.7624 134.488 26.7624C138.535 26.7624 142.064 22.2511 142.064 17.0037ZM143.547 26.43H151.711V24.0794H149.17V0.359111H143.688V2.54356H146.37V24.0794H143.57V26.43H143.547ZM157.052 15.1754C157.052 14.5343 157.311 13.8932 157.429 13.2759C158.064 10.9727 160.087 9.33436 162.487 9.1919C163.617 9.07318 164.769 9.5718 165.663 10.3316C166.934 11.7325 167.569 13.3946 167.569 15.1754H157.052ZM156.934 17.3361H170.746C170.746 10.5928 166.958 6.88872 162.252 6.88872C157.57 6.88872 153.899 11.2101 153.899 16.8137C153.899 22.6785 157.57 26.7387 162.769 26.7387C165.169 26.7387 167.334 25.7177 168.84 23.9369C169.593 23.0346 170.11 22.1561 170.369 21.0164L167.216 21.1351C166.205 23.4383 164.816 24.4355 162.652 24.4355C161.381 24.4355 160.111 23.9369 159.099 23.0346C157.828 21.8 157.193 20.1379 156.934 17.3361ZM188.463 17.0512H181.874L185.168 5.749L188.463 17.0512ZM191.38 26.43H197.073V22.3936H195.167L188.226 1.02394H182.156L175.31 22.3936H173.404V26.43H179.239L180.887 20.9215H189.756L191.38 26.43ZM223.307 10.6165H224.955V6.91246H217.355V10.6165H219.262L216.72 22.0137L213.566 6.91246H208.627L205.45 22.2749L202.815 10.6165H204.698V6.91246H197.097V10.6165H198.744L202.908 26.43H207.968L211.003 12.896L214.178 26.43H219.238L223.307 10.6165ZM238.508 19.2594C238.389 21.5625 236.483 23.3433 234.202 23.3433C232.296 23.3433 231.025 22.3223 231.025 20.8027C231.025 18.1197 233.944 17.7398 238.366 17.3599H238.485V19.1407V19.2594H238.508ZM238.648 26.43H244.602V22.7022H242.954L243.072 13.6558C243.072 9.33436 240.272 6.91246 234.954 6.91246C230.39 6.91246 227.355 9.33436 227.096 13.1572L231.66 13.2759V13.1572C231.779 11.3763 232.673 10.2366 235.073 10.2366C237.472 10.2366 238.485 11.1389 238.485 14.0594C232.389 14.5581 226.061 15.1991 226.061 20.8027C226.061 24.2456 228.979 26.7862 232.789 26.7862C235.073 26.7862 237.237 25.8839 238.625 24.1269V26.43H238.648ZM258.341 11.1152C259.095 11.1152 259.847 11.2339 260.601 11.3763V6.84123C259.847 6.72251 259.212 6.58005 258.46 6.58005C256.318 6.58005 254.931 7.62479 253.684 10.0942V6.91246H247.26V10.7353H249.143V22.7022H247.26V26.43H256.06V22.7022H253.8V15.1517C253.942 12.801 255.942 10.9964 258.341 11.1152ZM266.576 14.2494C266.953 12.2074 268.717 10.5453 270.835 10.5453H270.954C272.953 10.5453 274.718 12.2074 274.718 14.3681L266.576 14.2494ZM266.436 17.6923H279.987C280.106 15.1279 279.352 12.706 278.106 10.5453C276.482 7.98095 273.705 6.58005 270.812 6.58005C265.542 6.58005 261.637 10.8065 261.637 16.6713C261.637 22.536 265.517 26.7624 270.812 26.7624C275.33 26.7624 278.717 24.1981 279.587 19.9954L274.811 20.1142C274.317 21.7762 272.67 23.0584 270.929 22.9159C270.083 22.9397 266.953 22.6785 266.436 17.6923Z" fill="white"/>
</svg>
